HIERARCHY
ROOT Hips
{
	OFFSET -3.958830 18.904000 13.208200
	CHANNELS 6 Xposition Yposition Zposition Zrotation Yrotation Xrotation 
	JOINT LHipJoint
	{
		OFFSET 0.000000 0.000000 0.000000
		CHANNELS 3 Zrotation Yrotation Xrotation
		JOINT LeftUpLeg
		{
			OFFSET 1.800000 -1.400000 0.085000
			CHANNELS 3 Zrotation Yrotation Xrotation
			JOINT LeftLeg
			{
				OFFSET 2.215000 -6.000000 0.000000
				CHANNELS 3 Zrotation Yrotation Xrotation
				JOINT LeftFoot
				{
					OFFSET 2.500000 -6.900000 0.000000
					CHANNELS 3 Zrotation Yrotation Xrotation
					JOINT LeftToeBase
					{
						OFFSET 0.200000 -0.500000 1.950000
						CHANNELS 3 Zrotation Yrotation Xrotation
						End Site
						{
							OFFSET 0.000000 0.000000 0.000000
						}
					}
				}
			}
		}
	}
	JOINT RHipJoint
	{
		OFFSET 0.000000 0.000000 0.000000
		CHANNELS 3 Zrotation Yrotation Xrotation
		JOINT RightUpLeg
		{
			OFFSET -1.800000 -1.400000 0.085000
			CHANNELS 3 Zrotation Yrotation Xrotation
			JOINT RightLeg
			{
				OFFSET -2.215000 -6.000000 0.000000
				CHANNELS 3 Zrotation Yrotation Xrotation
				JOINT RightFoot
				{
					OFFSET -2.500000 -6.900000 0.000000
					CHANNELS 3 Zrotation Yrotation Xrotation
					JOINT RightToeBase
					{
						OFFSET -0.200000 -0.500000 1.950000
						CHANNELS 3 Zrotation Yrotation Xrotation
						End Site
						{
							OFFSET 0.000000 0.000000 0.000000
						}
					}
				}
			}
		}
	}
	JOINT LowerBack
	{
		OFFSET 0.000000 0.000000 0.000000
		CHANNELS 3 Zrotation Yrotation Xrotation
		JOINT Spine
		{
			OFFSET -0.087000 1.940000 -0.288900
			CHANNELS 3 Zrotation Yrotation Xrotation
			JOINT Spine1
			{
				OFFSET 0.000000 1.950000 0.060000
				CHANNELS 3 Zrotation Yrotation Xrotation
				JOINT Neck
				{
					OFFSET 0.000000 0.000000 0.000000
					CHANNELS 3 Zrotation Yrotation Xrotation
					JOINT Neck1
					{
						OFFSET 0.000000 1.600000 0.340000
						CHANNELS 3 Zrotation Yrotation Xrotation
						JOINT Head
						{
							OFFSET 0.000000 1.667000 -0.240000
							CHANNELS 3 Zrotation Yrotation Xrotation
							End Site
							{
								OFFSET 0.000000 0.000000 0.000000
							}
						}
					}
				}
				JOINT LeftShoulder
				{
					OFFSET 0.000000 0.000000 0.000000
					CHANNELS 3 Zrotation Yrotation Xrotation
					JOINT LeftArm
					{
						OFFSET 2.700000 1.550000 -0.730000
						CHANNELS 3 Zrotation Yrotation Xrotation
						JOINT LeftForeArm
						{
							OFFSET 5.450000 0.000000 0.000000
							CHANNELS 3 Zrotation Yrotation Xrotation
							JOINT LeftHand
							{
								OFFSET 3.450000 0.000000 0.000000
								CHANNELS 3 Zrotation Yrotation Xrotation
								JOINT LeftHandIndex1
								{
									OFFSET 0.750000 0.000000 0.000000
									CHANNELS 3 Zrotation Yrotation Xrotation
									End Site
									{
										OFFSET 0.000000 0.000000 0.000000
									}
								}
							}
						}
					}
				}
				JOINT RightShoulder
				{
					OFFSET 0.000000 0.000000 0.000000
					CHANNELS 3 Zrotation Yrotation Xrotation
					JOINT RightArm
					{
						OFFSET -2.700000 1.550000 -0.730000
						CHANNELS 3 Zrotation Yrotation Xrotation
						JOINT RightForeArm
						{
							OFFSET -5.450000 0.000000 0.000000
							CHANNELS 3 Zrotation Yrotation Xrotation
							JOINT RightHand
							{
								OFFSET -3.450000 0.000000 0.000000
								CHANNELS 3 Zrotation Yrotation Xrotation
								JOINT RightHandIndex1
								{
									OFFSET -0.750000 0.000000 0.000000
									CHANNELS 3 Zrotation Yrotation Xrotation
									End Site
									{
										OFFSET 0.000000 0.000000 0.000000
									}
								}
							}
						}
					}
				}
			}
		}
	}
}
MOTION
Frames: 13
Frame Time: 0.016667
-11.134520 16.637690 -2.180160 -11.143464 -1.682880 0.991932 -15.432692 13.444706 4.530398 30.874170 0.628894 -15.936923 -0.715761 4.618621 -1.339531 -0.046640 5.474530 2.576552 0.035260 -0.122010 0.049920 17.983186 -9.825012 1.817542 -11.554634 2.320823 -12.853068 5.961153 -6.034182 19.545413 -0.296339 -3.613264 3.000081 -0.155670 0.417700 0.415750 -2.820965 -4.471952 -8.421388 13.993794 -3.579615 21.371144 -7.151971 -0.182541 13.596346 8.189815 -4.738818 -18.494930 -17.759470 19.005331 44.402094 -3.591080 15.740130 -3.345070 -16.818941 -24.604390 7.951452 -41.881469 -17.647705 1.160168 -5.497650 -18.802140 -0.642405 -3.812133 2.926767 0.499460 0.222360 0.142560 0.103610 0.916059 27.201670 14.189235 20.726499 4.144989 -2.739261 -12.083518 -3.894705 0.381759 2.774876 -1.105476 -0.138780 0.165090 0.199100 -0.033920 
-10.926370 16.739420 -2.174570 -11.641611 -1.607172 1.223827 -15.398168 13.526366 4.453974 29.460024 0.298980 -15.445444 -0.494029 4.347907 -2.151256 -0.072396 5.330318 2.648384 0.007220 -0.168020 0.048940 17.971365 -9.854150 1.876005 -12.575115 2.270395 -13.350857 6.729593 -6.169179 18.830512 -0.291923 -3.585536 3.001309 -0.184620 0.410550 0.413700 -2.849812 -4.532405 -8.415441 14.864577 -3.802292 21.811434 -6.774389 -0.252697 12.907085 8.173313 -4.574914 -18.613442 -17.399845 18.761260 45.034847 -4.172770 15.998370 -3.618380 -16.816727 -24.607985 8.000495 -40.179049 -16.909407 0.000102 -10.362107 -22.444698 0.011827 -3.776773 2.928606 0.531330 0.212550 0.149120 0.087960 1.000452 27.146566 14.356740 21.256886 3.553263 -2.725574 -11.544594 -3.342648 0.440861 2.755062 -1.065756 -0.155540 0.168150 0.217950 -0.050610 
-10.715230 16.837300 -2.179270 -12.184959 -1.484504 1.117473 -15.374664 13.608871 4.390084 28.333925 0.097948 -15.042284 -0.716479 4.227541 -2.415931 -0.111363 5.239772 2.682823 0.000280 -0.201530 0.074900 17.960218 -9.869329 1.920343 -13.749403 2.471259 -14.564226 8.004502 -6.945619 20.951972 -0.321911 -3.842223 2.875118 -0.200800 0.376050 0.411780 -2.868147 -4.617559 -8.405678 15.761797 -4.264067 22.908297 -6.594282 -0.390771 12.286968 8.227406 -4.487825 -18.645400 -17.198071 18.553247 45.371041 -5.012440 16.300140 -4.276180 -16.658240 -24.465538 7.876768 -37.984291 -16.225905 -1.183222 -15.662214 -25.834742 1.009059 -3.737197 2.957967 0.571080 0.190120 0.159480 0.062700 0.759531 26.931697 14.501358 21.651865 2.861132 -2.711312 -10.814520 -1.970538 0.407650 2.716936 -1.033919 -0.170120 0.154480 0.228070 -0.082730 
-10.506140 16.933060 -2.189290 -12.974429 -1.370582 0.730467 -15.365426 13.654596 4.297931 27.582582 0.026188 -14.476199 -0.746271 4.162578 -2.456968 -0.144664 5.168971 2.689202 0.044160 -0.176400 0.133290 17.957922 -9.802875 2.029204 -15.013261 3.030006 -16.392735 10.288211 -8.656934 25.673501 -0.443254 -4.540945 2.555546 -0.186920 0.302180 0.421280 -2.881385 -4.728843 -8.412452 16.786881 -4.804458 24.528961 -6.193021 -0.546710 11.697337 8.132422 -4.619477 -18.463802 -17.462002 18.348075 45.248205 -5.589930 16.168170 -5.949660 -16.512434 -24.102056 7.565478 -36.007438 -15.745852 -2.263588 -20.600075 -28.954607 2.203267 -3.676869 3.031216 0.615240 0.139640 0.194640 0.038990 0.819982 26.568199 14.561025 21.709499 2.070727 -2.879176 -10.680093 -0.150901 0.291371 2.676408 -1.041199 -0.157350 0.119140 0.214580 -0.114080 
-10.313610 17.015740 -2.205290 -13.833697 -1.006243 0.409030 -15.360673 13.559836 4.170496 27.236672 0.004475 -14.111375 -0.932876 4.157203 -2.373573 -0.142913 5.128186 2.691699 0.077370 -0.140620 0.160980 17.989164 -9.596772 2.290138 -16.594338 3.887219 -18.849676 13.774765 -11.612935 31.970398 -0.674034 -5.808751 2.067126 -0.172000 0.261510 0.432220 -2.939129 -4.774058 -8.478648 17.915844 -5.422818 25.966496 -5.862159 -0.781898 11.356869 7.880802 -4.759378 -18.246322 -17.539834 17.964380 44.848293 -5.816420 15.785240 -7.034110 -15.989936 -23.887612 7.340769 -33.796033 -15.224701 -3.267094 -25.464850 -32.099345 3.734645 -3.640121 3.104971 0.620790 0.113640 0.219530 0.034690 0.794334 26.273917 14.541691 21.976914 1.538909 -3.094630 -10.933848 1.166031 0.189564 2.650484 -1.062077 -0.132890 0.097790 0.198520 -0.116790 
-10.136540 17.089700 -2.217280 -14.730845 -0.352635 0.272475 -15.369826 13.324679 4.055365 27.231381 -0.035643 -13.813133 -1.559297 4.190592 -2.546926 -0.142500 5.148838 2.671795 0.106240 -0.107150 0.185750 18.043197 -9.212371 2.698091 -18.342898 4.804486 -21.524219 18.400538 -15.800429 38.217957 -1.034659 -7.446117 1.499934 -0.156070 0.224970 0.426440 -3.010485 -4.846702 -8.623773 19.087624 -6.270795 27.264651 -5.775620 -1.163969 10.773604 7.654984 -4.926243 -18.094848 -17.789073 17.885121 44.546025 -6.022830 15.621110 -8.244210 -15.688969 -23.728135 7.186133 -31.698341 -14.442185 -4.137355 -30.056820 -34.753885 5.404019 -3.602587 3.156538 0.635950 0.087470 0.237510 0.027530 0.963004 26.016959 14.421060 22.421008 1.261659 -3.369005 -11.438899 2.050504 0.114219 2.627096 -1.074361 -0.122240 0.092290 0.186670 -0.125920 
-9.980970 17.164430 -2.229430 -15.372667 0.160622 -0.064774 -15.425066 13.075209 3.988704 27.338968 -0.083630 -13.162760 -2.616158 4.250284 -3.070271 -0.119878 5.249841 2.632980 0.118910 -0.097210 0.216000 18.059494 -8.708260 3.169810 -20.156197 5.607557 -23.893855 23.622845 -20.933679 43.855659 -1.489291 -9.197879 0.947161 -0.151270 0.183450 0.410810 -2.957729 -5.084833 -8.856134 19.259250 -6.637805 28.823678 -5.152830 -1.289126 10.395518 7.541517 -4.764570 -18.226585 -17.684874 17.845494 45.288087 -6.651830 15.923220 -8.781900 -15.554499 -24.084018 7.157762 -29.155399 -13.758191 -4.719750 -34.125311 -36.223472 6.956702 -3.559461 3.185657 0.656650 0.060940 0.253950 0.014550 1.108547 26.242726 14.574114 23.089442 0.599037 -3.640022 -11.568969 2.518877 0.101827 2.620427 -1.076845 -0.125300 0.085000 0.174090 -0.145540 
-9.837130 17.212680 -2.228460 -16.102318 0.907995 0.306784 -15.450922 12.768078 3.857409 27.410959 -0.222938 -13.228018 -3.246373 4.258410 -3.223474 -0.101637 5.291322 2.633033 0.101190 -0.125850 0.216900 18.110704 -8.212103 3.718420 -22.094461 6.088769 -26.812632 29.622365 -27.110482 48.416987 -1.970548 -10.921083 0.464971 -0.165130 0.201460 0.420260 -2.985689 -5.190956 -9.068640 19.802380 -6.869287 29.081165 -4.614734 -1.459545 9.966691 7.371473 -4.555982 -17.830467 -16.744469 17.458792 45.109492 -7.281200 16.379540 -8.025860 -15.239059 -23.787520 6.898580 -27.651324 -13.573414 -4.846277 -37.698677 -37.250335 8.430661 -3.587636 3.219588 0.636920 0.083850 0.238350 0.015390 1.091189 25.638079 14.316413 23.997900 0.305838 -3.888348 -11.850607 3.143321 0.033078 2.609535 -1.104667 -0.129900 0.075250 0.174830 -0.146390 
-9.691640 17.251430 -2.224950 -17.256931 1.717527 0.927709 -15.424687 12.434844 3.714049 27.593603 -0.342184 -13.846205 -3.294284 4.220302 -3.242330 -0.108321 5.246490 2.652729 0.098210 -0.122840 0.212510 18.204969 -7.833577 4.205729 -23.600671 6.169312 -29.471404 36.218383 -33.502629 50.919899 -2.384848 -12.216694 0.158127 -0.159200 0.217140 0.414000 -3.144667 -5.106552 -9.196048 21.536736 -7.561834 28.746908 -4.676002 -1.777029 9.312149 7.147470 -4.578879 -17.191728 -16.265206 17.248652 44.606434 -7.634230 16.607120 -7.664790 -15.049604 -22.990222 6.447428 -27.005378 -13.728332 -4.608675 -40.136955 -37.590726 9.477247 -3.623590 3.232155 0.611740 0.104880 0.219760 0.021780 1.259651 24.510585 13.785215 24.468817 0.422528 -4.020393 -12.092483 3.912902 -0.072682 2.588612 -1.124537 -0.133040 0.078650 0.168880 -0.143240 
-9.553200 17.278280 -2.217390 -18.275440 2.126099 1.803482 -15.385278 12.134559 3.581013 27.683724 -0.455320 -14.633016 -3.439820 4.202227 -3.059456 -0.118975 5.187916 2.682580 0.089390 -0.121660 0.193650 18.299839 -7.561647 4.609630 -24.904299 6.014525 -32.006676 43.147262 -39.555944 51.670752 -2.681907 -13.031268 -0.002502 -0.151150 0.251310 0.406980 -3.322553 -4.940943 -9.274552 23.195959 -7.997908 28.015132 -4.791091 -1.871815 8.679555 6.836624 -4.693015 -16.537809 -15.871362 17.108681 43.623292 -7.509960 16.697380 -7.071470 -14.873927 -22.056852 5.969176 -26.759827 -13.990088 -4.257702 -41.700209 -37.825230 10.255308 -3.669297 3.240860 0.578550 0.133030 0.192870 0.035230 1.624785 23.356602 13.254699 24.702965 0.536395 -4.072550 -12.306317 4.397322 -0.163992 2.575041 -1.145848 -0.140370 0.089910 0.166190 -0.130830 
-9.415550 17.306600 -2.220920 -19.464234 2.268370 2.406298 -15.337011 11.921296 3.455433 27.824387 -0.451576 -15.307498 -3.240987 4.213625 -2.657664 -0.128417 5.100797 2.715983 0.105380 -0.080530 0.194120 18.384438 -7.430372 4.869178 -25.402311 5.821282 -33.924134 50.237466 -44.534293 50.637823 -2.864306 -13.338242 -0.033073 -0.124170 0.258330 0.395970 -3.504639 -4.718633 -9.274005 25.227134 -8.613283 27.630157 -5.312743 -1.944876 8.372342 6.723116 -5.002736 -15.986372 -16.017160 16.996905 42.356960 -7.931610 16.691680 -7.406590 -14.317039 -21.116417 5.592686 -26.735204 -14.155159 -4.201582 -42.465151 -38.639126 10.898577 -3.684820 3.245245 0.551460 0.143440 0.192030 0.055610 1.220919 22.400114 12.726689 25.220305 0.999550 -4.044323 -12.125054 4.781618 -0.234208 2.572087 -1.158882 -0.137400 0.104430 0.141520 -0.115890 
-9.284390 17.340400 -2.222120 -20.086223 2.250781 2.704773 -15.314017 11.868020 3.340944 27.489308 -0.492892 -15.679210 -3.104910 4.213980 -2.146250 -0.174310 5.034472 2.732949 0.093440 -0.109020 0.202320 18.417490 -7.375464 5.037737 -26.035136 5.309723 -35.342615 57.305894 -48.582351 48.493808 -2.943038 -13.319488 -0.010344 -0.133790 0.259460 0.411490 -3.579410 -4.663412 -9.271095 26.142799 -9.075466 27.845322 -5.724768 -1.955360 7.807284 6.791311 -5.037152 -15.629838 -15.787156 17.142699 42.135353 -8.703260 17.154150 -7.820000 -14.644646 -20.439669 5.282140 -25.837198 -13.693827 -4.266528 -43.557644 -39.454395 11.685762 -3.714565 3.254779 0.563340 0.152200 0.189030 0.039030 1.366151 21.692794 12.336847 25.188926 1.515226 -3.940613 -11.728772 4.657119 -0.195507 2.567414 -1.142193 -0.146220 0.098790 0.162200 -0.132700 
-9.171130 17.358960 -2.215420 -20.393226 2.112347 3.302737 -15.301161 11.847221 3.234526 27.053825 -0.593848 -16.262377 -3.096452 4.224343 -1.452842 -0.206301 4.955882 2.763133 0.068210 -0.136680 0.181280 18.440473 -7.361201 5.156548 -26.699473 4.546656 -37.099644 64.997941 -52.146298 45.368219 -2.960020 -13.127589 0.063191 -0.145430 0.292660 0.436400 -3.626150 -4.627149 -9.258140 26.418503 -9.041011 27.574637 -5.425539 -1.864102 7.380136 6.622026 -5.113077 -15.132346 -15.485323 17.220353 41.337192 -9.329110 17.603150 -7.732740 -14.416463 -19.536710 4.916457 -25.961012 -13.976278 -3.984273 -44.130470 -39.882593 12.161966 -3.775243 3.260969 0.546330 0.186350 0.174650 0.037180 1.440276 20.785220 11.892259 25.017820 1.924399 -3.835060 -11.471336 4.595736 -0.190761 2.561229 -1.138081 -0.148460 0.096640 0.185520 -0.127620 
